<?xml version="1.0" encoding="UTF-8"?>
<svg id="Layer_1" xmlns="http://www.w3.org/2000/svg" version="1.1" viewBox="0 0 279.52 279.52">
  <!-- Generator: Adobe Illustrator 29.6.1, SVG Export Plug-In . SVG Version: 2.1.1 Build 9)  -->
  <defs>
    <style>
      .st0 {
        fill: #d4bfaa;
      }

      .st1 {
        opacity: .7;
      }

      .st2 {
        fill: #99a890;
      }
    </style>
  </defs>
  <path class="st0" d="M78.44,117.83s-1.61-36.31-39.84-41.45c0,0,3.21,38.24,39.84,41.45Z"/>
  <g class="st1">
    <path class="st0" d="M78.44,117.81s-20.34-21.11-46.21-3.82c0,0,22.34,21.42,46.21,3.82Z"/>
  </g>
  <g>
    <path class="st2" d="M38.64,192.57v-40.07h7.79v33.24h20.43v6.83h-28.22Z"/>
    <path class="st2" d="M78.93,193.13c-1.43,0-2.77-.24-4.01-.71-1.24-.47-2.31-1.13-3.22-1.98-.9-.85-1.61-1.83-2.12-2.96-.51-1.13-.76-2.37-.76-3.72s.31-2.68.93-3.87c.62-1.18,1.49-2.19,2.6-3.02,1.11-.83,2.44-1.48,3.98-1.95,1.54-.47,3.24-.71,5.08-.71,1.32,0,2.6.11,3.87.34,1.26.23,2.38.55,3.36.96v-1.69c0-1.96-.56-3.46-1.66-4.51-1.11-1.05-2.76-1.58-4.94-1.58-1.58,0-3.12.28-4.63.85-1.5.56-3.05,1.39-4.63,2.48l-2.31-4.8c3.8-2.52,7.9-3.78,12.3-3.78s7.55,1.04,9.9,3.13c2.35,2.09,3.53,5.11,3.53,9.06v9.2c0,.79.14,1.35.42,1.69.28.34.74.53,1.38.56v6.43c-1.28.26-2.39.4-3.33.4-1.43,0-2.53-.32-3.3-.96-.77-.64-1.25-1.49-1.44-2.54l-.17-1.64c-1.32,1.73-2.92,3.05-4.8,3.95-1.88.9-3.89,1.35-6.04,1.35ZM81.07,187.6c1.28,0,2.49-.23,3.64-.68,1.15-.45,2.04-1.05,2.68-1.81.83-.64,1.24-1.35,1.24-2.14v-3.39c-.9-.34-1.88-.61-2.93-.82-1.05-.21-2.07-.31-3.05-.31-1.96,0-3.56.44-4.8,1.33-1.24.88-1.86,2-1.86,3.36,0,1.28.49,2.34,1.47,3.19.98.85,2.18,1.27,3.61,1.27Z"/>
    <path class="st2" d="M127.41,159.33h-12.81v33.24h-7.73v-33.24h-12.81v-6.83h33.35v6.83Z"/>
    <path class="st2" d="M159.12,192.57h-7.56v-16.59c0-2.33-.43-4.05-1.3-5.16-.87-1.11-2.09-1.66-3.67-1.66-.68,0-1.39.15-2.14.45-.75.3-1.47.72-2.14,1.27-.68.55-1.3,1.2-1.86,1.95-.56.75-.98,1.58-1.24,2.48v17.27h-7.56v-41.2h7.56v17.1c1.09-1.92,2.57-3.39,4.43-4.43,1.86-1.03,3.92-1.55,6.18-1.55,1.92,0,3.48.33,4.68.99,1.2.66,2.14,1.53,2.82,2.62.68,1.09,1.15,2.33,1.41,3.72.26,1.39.4,2.82.4,4.29v18.45Z"/>
    <path class="st2" d="M179.43,193.13c-2.37,0-4.51-.41-6.43-1.21-1.92-.81-3.56-1.91-4.91-3.3-1.35-1.39-2.4-3.01-3.13-4.85-.73-1.84-1.1-3.78-1.1-5.81s.36-4.09,1.07-5.95c.71-1.86,1.75-3.5,3.1-4.91,1.35-1.41,3-2.53,4.94-3.36,1.94-.83,4.11-1.24,6.52-1.24s4.56.41,6.46,1.24c1.9.83,3.52,1.94,4.85,3.33,1.33,1.39,2.35,3.01,3.05,4.85.7,1.84,1.04,3.76,1.04,5.76,0,.49,0,.96-.03,1.41-.02.45-.07.83-.14,1.13h-22.85c.11,1.17.4,2.2.85,3.1.45.9,1.03,1.67,1.75,2.31.71.64,1.52,1.13,2.43,1.47.9.34,1.84.51,2.82.51,1.5,0,2.92-.37,4.26-1.1,1.33-.73,2.25-1.7,2.74-2.91l6.49,1.81c-1.09,2.26-2.83,4.11-5.22,5.56-2.39,1.45-5.24,2.17-8.55,2.17ZM187.11,175.3c-.19-2.22-1.01-4-2.46-5.33-1.45-1.33-3.21-2-5.28-2-1.02,0-1.97.18-2.85.54-.88.36-1.66.86-2.34,1.5s-1.23,1.41-1.67,2.31c-.43.9-.69,1.9-.76,2.99h15.35Z"/>
    <path class="st2" d="M217.13,169.54c-2.29.04-4.35.48-6.15,1.33s-3.1,2.12-3.89,3.81v17.89h-7.56v-29.57h6.94v6.32c.53-1.02,1.15-1.93,1.86-2.74.71-.81,1.49-1.51,2.31-2.12.83-.6,1.66-1.06,2.51-1.38.85-.32,1.66-.48,2.45-.48h.93c.21,0,.4.02.59.06v6.88Z"/>
    <path class="st2" d="M229.04,193.13c-1.43,0-2.77-.24-4.01-.71-1.24-.47-2.31-1.13-3.22-1.98-.9-.85-1.61-1.83-2.12-2.96-.51-1.13-.76-2.37-.76-3.72s.31-2.68.93-3.87c.62-1.18,1.49-2.19,2.6-3.02,1.11-.83,2.44-1.48,3.98-1.95,1.54-.47,3.24-.71,5.08-.71,1.32,0,2.6.11,3.87.34,1.26.23,2.38.55,3.36.96v-1.69c0-1.96-.56-3.46-1.66-4.51-1.11-1.05-2.76-1.58-4.94-1.58-1.58,0-3.12.28-4.63.85-1.5.56-3.05,1.39-4.63,2.48l-2.31-4.8c3.8-2.52,7.9-3.78,12.3-3.78s7.55,1.04,9.9,3.13c2.35,2.09,3.53,5.11,3.53,9.06v9.2c0,.79.14,1.35.42,1.69.28.34.74.53,1.38.56v6.43c-1.28.26-2.39.4-3.33.4-1.43,0-2.53-.32-3.3-.96-.77-.64-1.25-1.49-1.44-2.54l-.17-1.64c-1.32,1.73-2.92,3.05-4.8,3.95-1.88.9-3.89,1.35-6.04,1.35ZM231.18,187.6c1.28,0,2.49-.23,3.64-.68,1.15-.45,2.04-1.05,2.68-1.81.83-.64,1.24-1.35,1.24-2.14v-3.39c-.9-.34-1.88-.61-2.93-.82-1.05-.21-2.07-.31-3.05-.31-1.96,0-3.56.44-4.8,1.33-1.24.88-1.86,2-1.86,3.36,0,1.28.49,2.34,1.47,3.19.98.85,2.18,1.27,3.61,1.27Z"/>
    <path class="st0" d="M62.51,215.17c-.26-.26-.74-.62-1.44-1.07-.7-.45-1.54-.89-2.54-1.33-1-.43-2.08-.8-3.24-1.1-1.17-.3-2.35-.45-3.56-.45-2.14,0-3.74.4-4.8,1.19-1.05.79-1.58,1.9-1.58,3.33,0,.83.2,1.51.59,2.06.4.55.97,1.03,1.72,1.44.75.41,1.7.79,2.85,1.13,1.15.34,2.47.7,3.98,1.07,1.96.53,3.73,1.09,5.33,1.69,1.6.6,2.95,1.35,4.06,2.26,1.11.9,1.97,1.99,2.57,3.25.6,1.26.9,2.81.9,4.66,0,2.14-.4,3.98-1.21,5.5-.81,1.52-1.9,2.76-3.27,3.7-1.37.94-2.95,1.63-4.74,2.06-1.79.43-3.66.65-5.61.65-3.01,0-5.98-.45-8.92-1.35-2.93-.9-5.57-2.18-7.9-3.84l3.44-6.72c.34.34.95.78,1.83,1.33.88.55,1.93,1.09,3.13,1.64,1.2.55,2.54,1.01,4.01,1.38,1.47.38,2.97.56,4.51.56,4.29,0,6.43-1.37,6.43-4.12,0-.86-.25-1.6-.73-2.2-.49-.6-1.19-1.13-2.09-1.58-.9-.45-1.99-.87-3.27-1.24-1.28-.38-2.71-.79-4.29-1.24-1.92-.53-3.58-1.1-4.99-1.72-1.41-.62-2.59-1.35-3.53-2.2-.94-.85-1.65-1.82-2.12-2.93-.47-1.11-.71-2.44-.71-3.98,0-2.03.38-3.84,1.13-5.42.75-1.58,1.8-2.9,3.13-3.95,1.33-1.05,2.89-1.85,4.66-2.4,1.77-.54,3.67-.82,5.7-.82,2.82,0,5.42.44,7.79,1.33,2.37.88,4.44,1.93,6.21,3.13l-3.44,6.32Z"/>
    <path class="st0" d="M90.22,245.3c-2.33,0-4.36-.52-6.09-1.55-1.73-1.03-3.09-2.44-4.06-4.2v17.21h-7.56v-41.59h6.6v5.08c1.09-1.73,2.5-3.09,4.23-4.09,1.73-1,3.72-1.5,5.98-1.5,1.99,0,3.84.4,5.53,1.21,1.69.81,3.15,1.9,4.37,3.27,1.22,1.37,2.18,2.99,2.88,4.85.7,1.86,1.04,3.83,1.04,5.9s-.32,4.16-.96,6.04c-.64,1.88-1.53,3.52-2.68,4.91-1.15,1.39-2.51,2.48-4.09,3.27s-3.31,1.19-5.19,1.19ZM87.68,238.87c1.13,0,2.17-.24,3.13-.73.96-.49,1.78-1.15,2.45-1.97.68-.83,1.2-1.79,1.58-2.88.38-1.09.56-2.22.56-3.39,0-1.24-.21-2.4-.62-3.47-.41-1.07-.99-2-1.72-2.79-.73-.79-1.6-1.41-2.6-1.86-1-.45-2.08-.68-3.25-.68-.71,0-1.45.12-2.2.37-.75.25-1.45.59-2.09,1.04-.64.45-1.21.98-1.72,1.58-.51.6-.89,1.26-1.16,1.98v6.94c.68,1.69,1.71,3.09,3.1,4.2,1.39,1.11,2.9,1.66,4.51,1.66Z"/>
    <path class="st0" d="M116.34,245.3c-1.43,0-2.77-.24-4.01-.71-1.24-.47-2.31-1.13-3.22-1.98-.9-.85-1.61-1.83-2.12-2.96-.51-1.13-.76-2.37-.76-3.72s.31-2.68.93-3.87c.62-1.18,1.49-2.19,2.6-3.02,1.11-.83,2.44-1.48,3.98-1.95,1.54-.47,3.24-.71,5.08-.71,1.32,0,2.6.11,3.87.34,1.26.23,2.38.55,3.36.96v-1.69c0-1.96-.56-3.46-1.66-4.51-1.11-1.05-2.76-1.58-4.94-1.58-1.58,0-3.12.28-4.63.85-1.5.56-3.05,1.39-4.63,2.48l-2.31-4.8c3.8-2.52,7.9-3.78,12.3-3.78s7.55,1.04,9.9,3.13c2.35,2.09,3.53,5.11,3.53,9.06v9.2c0,.79.14,1.35.42,1.69.28.34.74.53,1.38.56v6.43c-1.28.26-2.39.4-3.33.4-1.43,0-2.53-.32-3.3-.96-.77-.64-1.25-1.49-1.44-2.54l-.17-1.64c-1.32,1.73-2.92,3.05-4.8,3.95-1.88.9-3.89,1.35-6.04,1.35ZM118.49,239.77c1.28,0,2.49-.23,3.64-.68,1.15-.45,2.04-1.05,2.68-1.81.83-.64,1.24-1.35,1.24-2.14v-3.39c-.9-.34-1.88-.61-2.93-.82-1.05-.21-2.07-.31-3.05-.31-1.96,0-3.56.44-4.8,1.33-1.24.88-1.86,2-1.86,3.36,0,1.28.49,2.34,1.47,3.19.98.85,2.18,1.27,3.61,1.27Z"/>
    <path class="st0" d="M138.8,229.95c0-2.07.36-4.03,1.07-5.87.71-1.84,1.75-3.46,3.1-4.85,1.35-1.39,2.99-2.5,4.91-3.33,1.92-.83,4.08-1.24,6.49-1.24,3.23,0,5.99.7,8.27,2.09,2.28,1.39,3.98,3.22,5.11,5.47l-7.39,2.26c-.64-1.09-1.49-1.93-2.54-2.51-1.05-.58-2.22-.87-3.5-.87-1.09,0-2.11.22-3.05.65-.94.43-1.76,1.04-2.45,1.81-.7.77-1.24,1.7-1.64,2.79-.4,1.09-.59,2.29-.59,3.61s.21,2.52.62,3.61c.41,1.09.97,2.03,1.67,2.82.7.79,1.51,1.4,2.45,1.83.94.43,1.94.65,2.99.65,1.35,0,2.6-.34,3.75-1.02,1.15-.68,1.95-1.5,2.4-2.48l7.39,2.26c-1.02,2.26-2.69,4.1-5.02,5.53-2.33,1.43-5.14,2.14-8.41,2.14-2.41,0-4.57-.42-6.49-1.24-1.92-.83-3.56-1.95-4.91-3.36-1.35-1.41-2.4-3.05-3.13-4.91-.73-1.86-1.1-3.81-1.1-5.84Z"/>
    <path class="st0" d="M185.92,245.3c-2.37,0-4.51-.41-6.43-1.21-1.92-.81-3.56-1.91-4.91-3.3-1.35-1.39-2.4-3.01-3.13-4.85-.73-1.84-1.1-3.78-1.1-5.81s.36-4.09,1.07-5.95c.71-1.86,1.75-3.5,3.1-4.91,1.35-1.41,3-2.53,4.94-3.36,1.94-.83,4.11-1.24,6.52-1.24s4.56.41,6.46,1.24c1.9.83,3.52,1.94,4.85,3.33,1.33,1.39,2.35,3.01,3.05,4.85.7,1.84,1.04,3.76,1.04,5.76,0,.49,0,.96-.03,1.41-.02.45-.07.83-.14,1.13h-22.85c.11,1.17.4,2.2.85,3.1.45.9,1.03,1.67,1.75,2.31.71.64,1.52,1.13,2.43,1.47.9.34,1.84.51,2.82.51,1.5,0,2.92-.37,4.26-1.1,1.33-.73,2.25-1.7,2.74-2.91l6.49,1.81c-1.09,2.26-2.83,4.11-5.22,5.56-2.39,1.45-5.24,2.17-8.55,2.17ZM193.6,227.47c-.19-2.22-1.01-4-2.46-5.33-1.45-1.33-3.21-2-5.28-2-1.02,0-1.97.18-2.85.54-.88.36-1.66.86-2.34,1.5s-1.23,1.41-1.67,2.31c-.43.9-.69,1.9-.76,2.99h15.35Z"/>
  </g>
  <path class="st2" d="M116.23,119.98c-.53,0-.9,0-1.09-.02h-30.15v-53.83c-.17-23.38,10.25-33.38,16.48-37.26,8.27-5.15,18.8-5.66,27.49-1.31,8.77,4.39,15,13.28,16.26,23.21,1,7.94-1.38,15.27-6.37,19.61-4.91,4.27-10.81,5.4-16.59,3.19-4.08-1.56-6.74-4.24-7.03-4.54-1.53-1.59-1.48-4.13.12-5.66,1.59-1.52,4.11-1.48,5.64.1,1.06,1.07,6.59,6.1,12.62.87,2.97-2.58,4.35-7.28,3.68-12.56-.72-5.73-4.23-13.22-11.9-17.05-6.21-3.11-13.75-2.74-19.68.95-8.3,5.17-12.81,15.98-12.71,30.44v45.86h22.4c4.66.19,17.86-.87,22.76-7.97,1.25-1.82,3.74-2.27,5.56-1.02,1.82,1.25,2.28,3.75,1.02,5.56-7.36,10.67-23.9,11.44-28.51,11.44Z"/>
</svg>