<?xml version="1.0" encoding="UTF-8"?>
<svg id="Layer_1" xmlns="http://www.w3.org/2000/svg" version="1.1" viewBox="0 0 82.39 80.82">
  <!-- Generator: Adobe Illustrator 29.6.1, SVG Export Plug-In . SVG Version: 2.1.1 Build 9)  -->
  <defs>
    <style>
      .st0 {
        fill: #f8f7f3;
        fill-rule: evenodd;
      }
    </style>
  </defs>
  <path class="st0" d="M58.72,50.93c-.55,6.54.53,13.78-.05,20.23-.08.89-.14,1.87-1.28,1.86l-27.3-.16c-.13-.08-.57-.78-.57-.86v-13.28h-7c-.37,0-2.01-.99-2.4-1.31-3.51-2.81-1.44-10.46-2.07-14.49-.76-1.05-3.1-1.47-3.11-2.89-.02-1.79,2.52-5.58,3.03-7.56.46-1.75.39-3.94.78-5.78,2.06-9.7,11.61-17.97,21.49-18.78,24.43-2.01,36.99,26.98,18.48,43.03ZM49.81,11.18c-12.1-3.77-25.11,2.92-28.58,15.13-.66,2.32-.53,4.3-.98,6.45-.31,1.49-2.94,6.02-2.75,6.93.07.32,2.63,1.36,2.82,2.1.49,3.68-.48,8.36.07,11.92.18,1.17,1.53,2.73,2.7,2.73h8.29s.43.4.43.43v13.85h24.57v-20.99c14.51-10.69,10.63-33.2-6.57-38.55ZM31.95,30.45c-1.02-2.69-1.6-7.89.29-10.27,1.46-1.85,5.64,1.41,6.66.8.42-.25,1.86-3.23,3.5-3.8,1.75-.61,4.11,2.81,5.01,4.12,1.51-.59,3.47-1.75,5.13-1.71,2.25.06,2.57,5.61,2.41,7.29-1.24,12.98-18.08,16.58-23,3.57ZM37.77,23.49c-.12-.51-3.33-1.72-3.79-1.58-1.45.43-.58,6.18-.11,7.48.79,2.19,2.87,5,5.08,5.92-1.81-3.76-2.73-7.78-1.18-11.82ZM42.84,19.63c-4.6,3.31-4.83,12.45-.76,16.12,1.37,1.24,2.57-.83,3.2-1.96,2.4-4.28,2.09-11.37-2.44-14.16ZM52.36,21.9c-.92-.04-3.7.71-3.95,1.62-.18.67.46,2.23.53,3.09.15,2.06-.08,3.88-.72,5.84-.33,1.01-.91,1.88-1.27,2.87.37.37,2.67-1.9,3-2.28,2.69-3.14,3.57-7.16,2.41-11.13Z"/>
</svg>