<?xml version="1.0" encoding="UTF-8"?>
<svg id="Layer_1" xmlns="http://www.w3.org/2000/svg" version="1.1" viewBox="0 0 82.39 80.82">
  <!-- Generator: Adobe Illustrator 29.6.1, SVG Export Plug-In . SVG Version: 2.1.1 Build 9)  -->
  <defs>
    <style>
      .st0 {
        fill: #d2b8a3;
        fill-rule: evenodd;
      }
    </style>
  </defs>
  <path class="st0" d="M64.59,12.46c.59.59-2.33,9.41-3.04,10.57-1.34,2.18-11.92,11.28-11.72,12.4,7.2,7.79,15.4,14.84,22.19,22.88.13.63-.21,1-.49,1.49-.35.59-9.04,9.31-9.62,9.66-.65.39-1.1.7-1.89.4l-22.73-22.18-17.61,17.52c-4.27,3-9.16-.29-8.34-5.4.77-4.76,15.48-15.35,18.19-20.27L10.3,20.16c-.8-.94-.55-1.6,0-2.53.35-.59,9.04-9.31,9.62-9.66.64-.39,1.1-.71,1.89-.4l20.27,19.71c.98-.17,9.27-9.85,11.49-11.28,1.33-.86,10.26-4.31,11.02-3.55ZM21.18,19.39c-1.4-1.41,3.27-4.46,3.41-5.27.12-.69-2.45-3.17-3.17-3.17-.77,0-8.16,7.42-8.16,8.19,1.95,2.28,17.2,18.59,18.52,18.59.65,0,3.24-2.55,3.72-3.22.49-.7.41-1.72.76-2.21.84-1.17,5.13-4.08,1.83-4.94-1.94-.51-3.6,4.42-5.58,3.17-1.83-2.5,3.87-3.75,2.73-6.19-1.51-3.24-4.91,4.24-6.67,2.47-1.77-1.77,5.68-5.19,2.46-6.7-2.17-1.02-4.3,4.4-5.91,3.24-.09-.07-.46-1.5-.27-1.96.56-1.36,3.94-2.46,3-4.47-1.51-3.24-4.91,4.24-6.68,2.47ZM61.14,15.93c-3.92,1.04-9.51,2.11-3.72,5.97,2.71,1.8,3.15-4.03,3.72-5.97ZM52.57,20.92L17.24,56.3c1.05.71,2.51,3.01,3.45,3.5,2.19,1.12,30.95-31.64,35.29-34.46,1.07-1.13-2.8-4.52-3.4-4.41ZM50.78,49.11c-1.44-1.38,5.93-4.89,2.46-6.7-2.2-1.15-4.35,4.76-5.68,2.75-1.59-2.41,3.55-3.67,2.49-5.94-1.29-2.78-3.47,1.6-4.72,2.2-.83.4-1.75.17-2.72.73-.48.28-3.23,3.18-3.14,3.67.26,1.49,18.13,17.47,20.2,20.39.53.39.92.25,1.46,0,.46-.21,6.96-6.74,7.16-7.2.45-1,.2-2.01-.99-2-1.71,0-3.46,4.96-5.18,2.73-.44-1.7,3.23-3.47,3.42-4.52.1-.56-1.33-2.05-1.76-2.12-1.07-.18-4.12,4.85-5.6,3.43-1.62-1.56,6.59-5.76,2.12-6.88-1.89-.48-3.31,3.92-5.57,3.41-.94-2.8,3.67-4.39,2.73-6.43-1.51-3.24-4.86,4.21-6.67,2.47ZM15.08,58.55c-1.5.43-2.52,5.12,1.4,4.96,5.71-.23-.11-5.34-1.4-4.96Z"/>
</svg>