<?xml version="1.0" encoding="UTF-8"?>
<svg id="Layer_1" xmlns="http://www.w3.org/2000/svg" version="1.1" viewBox="0 0 82.39 80.82">
  <!-- Generator: Adobe Illustrator 29.6.1, SVG Export Plug-In . SVG Version: 2.1.1 Build 9)  -->
  <defs>
    <style>
      .st0 {
        fill: #d2b8a3;
        fill-rule: evenodd;
      }
    </style>
  </defs>
  <path class="st0" d="M66.76,33.54c-.24,3.06-2.31,4.13-2.84,6.16-.32,1.24-.06,2.48-.24,3.76-.31,2.16-1.83,4.49-3.6,5.73-1.12.79-4.31,1.51-4.58,2.42l-.14,16.52c-.34,1.86-2.64,3.7-4.52,3.84-3.1.23-6.88-3.88-9.75-3.11-1.95.53-5.06,3.06-7.18,3.15-2.4.11-4.87-2.1-5.14-4.48-.56-4.97.47-10.86-.06-15.93-.27-.91-3.46-1.63-4.58-2.42-1.77-1.24-3.29-3.57-3.6-5.73-.18-1.27.08-2.52-.24-3.76-.74-2.84-3.19-3.25-2.84-7.82.25-3.18,2.29-4,2.85-5.82.81-2.61-.47-4.59,1.67-7.66,2.25-3.23,4.83-2.64,6.99-4.35.85-.67,1.41-2.1,2.16-2.84,1.36-1.33,4.04-2.37,5.92-2.41,1.76-.04,3.51,1.09,4.96,1.13,2.71.08,3.88-1.82,7.72-.66,3.82,1.15,3.56,3.41,5.74,4.93,2.26,1.57,4.45,1.03,6.65,4.01,2.17,2.93,1.05,5.02,1.89,7.78.84,2.79,3.13,3.01,2.78,7.55ZM32.77,67.2c0,1.87,6.02-1.76,6.67-1.99,2.33-.87,3-.86,5.33,0,.65.24,6.67,3.86,6.67,1.99v-11.83c-1.34.56-3.03,1.28-4.5,1.26-1.62-.02-3.44-1.19-4.69-1.24-1.04-.05-2.24.8-3.33.95-2.12.29-4.26.04-6.14-.97v11.83ZM62.69,31.62c-.32-1.55-2.24-2.86-2.69-4.64-.56-2.18.28-4.2-1.08-6.26-1.37-2.06-3.93-1.87-5.79-3.2-1.45-1.03-1.95-2.77-3.03-3.63-3.06-2.42-5.19.17-8.16.15-1.61,0-3.75-1.39-5.25-1.26-3.06.27-3.51,3.25-5.6,4.74-1.86,1.33-4.43,1.14-5.79,3.2-1.33,2.01-.55,3.89-1,6-.58,2.75-3.5,3.54-2.77,7.07.32,1.55,2.24,2.86,2.7,4.64.56,2.18-.28,4.2,1.08,6.26,1.37,2.06,3.93,1.87,5.79,3.2,1.45,1.03,1.95,2.77,3.03,3.63,3.11,2.47,4.93-.06,7.85-.12,1.95-.03,4.07,1.49,5.81,1.16,3.15-.59,3.19-3.14,5.34-4.68,1.86-1.33,4.43-1.14,5.79-3.2,1.33-2.01.55-3.89,1-6,.58-2.75,3.5-3.54,2.77-7.07ZM42.61,48.39c-20.32.58-21.51-30.34-1.23-31.25,20.75-.94,21.64,30.68,1.23,31.25ZM40.69,21.14c-14.63,1.59-12.96,24.18,2.23,23.23,15.33-.95,13.76-24.96-2.23-23.23ZM45.09,35.87c-1.58,1.77-3.68,2.37-6.01,1.69-2.69-.79-5.85-6.85-1.48-6.54,1.83.13,2.27,3.63,3.82,2.88,1.31-.63,3.04-5.2,4.15-5.87.72-.43,2.19-.49,2.78.1,1.47,1.47-2.14,6.49-3.26,7.75Z"/>
</svg>