<?xml version="1.0" encoding="UTF-8"?>
<svg id="Layer_1" xmlns="http://www.w3.org/2000/svg" version="1.1" viewBox="0 0 82.39 80.82">
  <!-- Generator: Adobe Illustrator 29.6.1, SVG Export Plug-In . SVG Version: 2.1.1 Build 9)  -->
  <defs>
    <style>
      .st0 {
        fill: #d2b8a3;
        fill-rule: evenodd;
      }
    </style>
  </defs>
  <path class="st0" d="M74.4,40.93c-.27.92-4.17,5.24-4.96,5.65-.59.3-1.97-1.02-1.58-1.87.31-.67,5.11-4.46,4.44-5.15-.54-.12-.68.3-1,.57-6.73,5.56-12.79,13.64-19.44,19.47-.61.35-6.75,1.07-7.02.84.57-2.32.38-4.94,1.3-7.14l21.3-21.34c.71-.36,1.71,1.43,2.48,1.55.69.11,1.41-2.28,2.68-.12.76,1.29-.81,1.29-.56,2.24.35,1.34,3.31,2.01,2.35,5.3ZM49.22,54.17c-1.53-.4-1.7,2.74-1.52,3.69.88,0,3.45-.09,3.69-1.06.19-.6-1.84-2.54-2.17-2.63ZM67.64,35.29l-16.66,16.57c-.4.86,2,3.44,2.88,2.59,1.64-2.29,16.44-15.57,16.45-16.75,0-.5-2.04-2.56-2.67-2.4ZM60.86,17.81h-24.46c-.61,0-.61-2.57,0-2.57h26.75v19.45h-2.29v-16.88ZM24.94,27.26c-10.72.18-11.91-16.51-.76-17.39,11.54-.91,12.33,17.19.76,17.39ZM23.31,12.44c-6.35,1.08-6.2,11.31.24,12.21,10.05,1.4,9.88-13.93-.24-12.21ZM28.26,20.53c0,.1-.83,1.49-.91,1.53-.89.51-1.87-1.56-2.43-1.65-.71-.12-1.55,2-2.39,1.57-2.68-1.37.29-2.65.29-3.45,0-.88-1.84-1.26-1.31-2.43.11-.25,1.09-1.18,1.4-1.13.49.08,1.4,1.78,2,1.67.56-.1,1.54-2.17,2.43-1.65.07.04.84,1.23.86,1.3.25.89-1.68,1.91-1.68,2.23,0,.25,1.73,1.34,1.72,2ZM29.25,52.71h13.3v2.58h-13.3c-.61,0-.61-2.58,0-2.58ZM46.41,48.42h-16.61c-1.38.07-.95-1.29-.99-2.29h18.31c-.07.83.38,2.14-.71,2.29ZM41.56,22.68c.88-.17,2.28-.04,2.91.65,1.13,1.24,1.07,5.77-.56,6.84-4.59,3-5.73-6.83-2.35-7.49ZM48.85,37.55h-12.87c.85-3.26,1.33-4.89,4.99-5.16,4.7-.35,6.99.11,7.88,5.16ZM23.96,65.01h36.9v-12.01h2.29v14.59H21.67V29.82h2.29v35.18Z"/>
</svg>