<?xml version="1.0" encoding="UTF-8"?>
<svg id="Layer_1" xmlns="http://www.w3.org/2000/svg" version="1.1" viewBox="0 0 82.39 80.82">
  <!-- Generator: Adobe Illustrator 29.6.1, SVG Export Plug-In . SVG Version: 2.1.1 Build 9)  -->
  <defs>
    <style>
      .st0 {
        fill: #8c9b8b;
        fill-rule: evenodd;
      }
    </style>
  </defs>
  <path class="st0" d="M72.81,70.98c-.22,2.51-1.54,3.91-3.98,4.31-7.07-.53-15.13.7-22.08.01-2.55-.25-4.04-1.75-4.26-4.32-.78-8.92.62-18.98,0-28.03-.15-1.98,1.44-2.81,2.07-4.3-9.64-4.26-20.52-2.02-27.22,6.25-2.44,3.02-4.12,6.63-1.47,10.14,1.4,1.86,3.02,2.51,5.29,2.69,4.35.34,9.1-.32,13.5.04,1.39,1.06.83,2.73-.82,2.94-2.78.37-10.97.29-13.81-.05-3.07-.36-6.27-2.61-7.59-5.43-3.63-7.76,5.07-16.23,11.42-19.23.87-.41,4.35-1.36,4.52-1.53.11-.12.04-.41-.18-.62-.71-.64-2.04-1.26-2.88-2.09-7.33-7.34-3.82-20.02,6.07-22.69,13.8-3.74,23,14.48,11.68,23.74-.53.44-1.95.99-2.03,1.07-.48.5.11.5.43.6,1.6.48,3.28.98,4.77,1.73,1.03.52,2.98,2.18,3.84,2.37,4.84,1.1,13.64-.56,19.06.06,2.04.24,3.55,1.97,3.69,4.01-.63,9.14.78,19.31,0,28.33ZM42.35,14.8c-9.58-9.96-24.82,4.76-15.06,14.8,9.72,10,24.4-5.08,15.06-14.8ZM69.49,41.69c-.27-.23-1.4-.35-1.83-.38-5.25-.4-14.84-.48-20.03,0-.77.07-1.36.13-1.92.74v29.82c.5.39,1.04.4,1.63.45,5.25.45,15.39.47,20.62,0,.65-.06,1.28-.07,1.76-.61-.22-3.45.9-29.04-.22-30.02ZM65.59,64.86c-3.59.39-7.81-.28-11.47,0-1.76-.58-1.78-2.37,0-2.96,1.93.27,11.83-.54,12.72.36,1,1.01.27,2.45-1.25,2.61ZM61.61,55.92c-.24.24.59,2.81-.79,3.22-.61.18-6.17.15-6.57-.08-.91-.55-.46-3.01-.58-3.13-.17-.17-2.59.42-3.04-.66-.35-.83-.35-6.2.08-6.88.51-.81,2.83-.36,2.97-.49.12-.13-.33-2.59.58-3.13.43-.26,6.33-.27,6.77,0,.91.55.46,3,.58,3.13.14.15,2.79-.41,3.19.79.17.53.12,6.28-.1,6.66-.54.93-2.96.46-3.09.59ZM59.24,50.43c-.93-.65,1.02-4.02-2.63-3.15.02.98.13,3.07-1.02,3.28-.93.17-2.27-.51-2.51.74-.59,3.06,1.94,1.39,2.96,2.07.59.39.62,2.43.58,3.14,3.7.64,1.75-1.89,2.4-2.94.44-.71,2.93.31,3.2-1.09.6-3.08-2.01-1.39-2.96-2.06ZM51.83,64.49c-.71.72-3.67.75-3.74-.99-.13-3.24,5.95-1.25,3.74.99ZM48.88,66.71c1.13-.34,3.3-.33,3.3,1.28,0,1.69-2.84,1.74-3.68,1.07-.73-.58-.56-2.07.38-2.35ZM53.82,66.65h12.65c.93,0,.93,2.68,0,2.68h-12.65c-.9-.25-1.19-2.68,0-2.68ZM38.84,60.42c-1.51,1.22-3.26-1.24-2.16-2.34,1.57-1.57,3.71,1.08,2.16,2.34Z"/>
</svg>