<?xml version="1.0" encoding="UTF-8"?>
<svg id="Layer_1" xmlns="http://www.w3.org/2000/svg" version="1.1" viewBox="0 0 82.39 80.82">
  <!-- Generator: Adobe Illustrator 29.6.1, SVG Export Plug-In . SVG Version: 2.1.1 Build 9)  -->
  <defs>
    <style>
      .st0 {
        fill: #d2b8a3;
        fill-rule: evenodd;
      }
    </style>
  </defs>
  <path class="st0" d="M73.13,38.42c-1.22-.19-2.65-2.15-3.46-3.03-.26-.29-.26-.63-.83-.5v23.09c0,4.06-3.91,8.77-7.78,9.87-12.98,1.03-26.31.76-39.32.15-4.07-1.01-8.22-5.77-8.22-10.02v-23.09c-.57-.13-.57.21-.83.5-1.25,1.37-2.78,3.8-4.99,2.84-1-.43-.77-2.42.08-3.04L30.45,12.84c15.55-10.95,24.03,3.31,33.97,12.5.29.27.42.53.89.43v-12.5c0-.81,2.95-2.1,3.46.66.82,4.48-.51,10.77.13,15.45,1.04,1.73,6.17,5.41,6.41,7.14.21,1.47-.81,2.1-2.19,1.89ZM65.18,31.05c-1.46-1.98-3.46-3.42-5.18-5.12-5.39-5.34-11.4-13.93-19.77-13.3-2.52.19-5.44,1.31-7.43,2.86l-15.53,15.36-.24,1.24c.51,8.13-.63,16.98,0,25.02.34,4.25,2.88,7.31,7.22,7.78,10.84-.69,22.85.93,33.55.01,4.29-.37,6.89-3.06,7.46-7.25l-.09-26.6ZM52.76,52.2c-3.02,1.87-6.81-1.73-8.73-1.09-.48.16-1.14,1.91-1.67,2.46-4.2,4.37-12.14,1.91-12.92-4.14-.1-.76.14-2.98-.07-3.31-.07-.11-.81-.24-1.12-.5-4.18-3.47-2.93-8.96,1.98-10.94,6.3-2.53,13.84-3.8,20.26-6.25,2.75-.02,4.35,2.51,5.13,4.83,1.51,4.5,1.74,16.09-2.86,18.93ZM40.6,49.6l-7.65-2.06c-.79,4.9,6.11,6.75,7.65,2.06ZM34.42,37.25c-6.89.51-6.91,6.27,0,6.76v-6.76ZM52.96,37.68c-.08-1-1.02-5.74-2.16-5.68l-12.73,4.06v9.14c1.53.52,12.53,4.34,13.11,3.98,1.87-1.2,1.94-9.37,1.77-11.5Z"/>
</svg>