<?xml version="1.0" encoding="UTF-8"?>
<svg id="Layer_1" xmlns="http://www.w3.org/2000/svg" version="1.1" viewBox="0 0 82.39 80.82">
  <!-- Generator: Adobe Illustrator 29.6.1, SVG Export Plug-In . SVG Version: 2.1.1 Build 9)  -->
  <defs>
    <style>
      .st0 {
        fill: #d2b8a3;
        fill-rule: evenodd;
      }
    </style>
  </defs>
  <path class="st0" d="M51.43,67.15c-.5-.71-.79-2.19-1.6-2.34l-32.13-.14-.66-.66-.02-34.91.81-1.03c6.71-4.75,12.89-10.28,19.57-15.07.61-.44,1.89-1.55,2.53-1.69.53-.11,1.02-.06,1.48.26l21.81,16.76.46.59c.48,5.73.02,11.58.23,17.35.2.59,1.35.41,2.01.61,5.22,1.61,9.27,5.9,9.76,11.5,1.19,13.74-16.3,20.03-24.24,8.76ZM60.32,30.43l-19.94-15.23-20.07,15.36v30.84h28.86c-.64-7.08,4.16-13.77,11.27-14.71l-.12-16.26ZM60.92,50.44c-10.1,1.38-10.46,16.82-.21,18.45,14.5,2.3,14.56-20.41.21-18.45ZM64.39,61.66v4.85c0,1.55-3.94,1.74-3.94-.53v-4.33h-4.85c-.07,0-.98-.92-1.04-1.05-.53-1.16.49-2.88,1.57-2.88h4.33v-4.59c0-.62,1.28-1.46,1.97-1.46s1.97.84,1.97,1.46v4.59h4.59c.12,0,1.09.72,1.2.9.56.92.12,3.04-.93,3.04h-4.85Z"/>
</svg>